<svg xmlns="http://www.w3.org/2000/svg" width="1200" height="620" viewBox="0 0 1200 620">
  <rect width="1200" height="620" fill="#07111f"/>
  <style>.box{fill:#0d1b2f;stroke:#6b7c93;stroke-width:2}.txt{fill:#f8fbff;font-family:Arial;font-size:20px}.small{fill:#cbd5e1;font-family:Arial;font-size:15px}</style>
  <rect class="box" x="60" y="70" width="220" height="100" rx="22"/><text class="txt" x="100" y="125">Next.js Dashboard</text>
  <rect class="box" x="360" y="70" width="220" height="100" rx="22"/><text class="txt" x="410" y="125">FastAPI Gateway</text>
  <rect class="box" x="660" y="70" width="250" height="100" rx="22"/><text class="txt" x="710" y="125">Agent Orchestrator</text>
  <rect class="box" x="90" y="260" width="190" height="90" rx="20"/><text class="txt" x="145" y="312">Planner</text>
  <rect class="box" x="320" y="260" width="190" height="90" rx="20"/><text class="txt" x="380" y="312">RAG</text>
  <rect class="box" x="550" y="260" width="190" height="90" rx="20"/><text class="txt" x="600" y="312">Memory</text>
  <rect class="box" x="780" y="260" width="190" height="90" rx="20"/><text class="txt" x="825" y="312">Tool Router</text>
  <rect class="box" x="90" y="430" width="190" height="90" rx="20"/><text class="txt" x="135" y="482">Executor</text>
  <rect class="box" x="320" y="430" width="190" height="90" rx="20"/><text class="txt" x="375" y="482">Critic</text>
  <rect class="box" x="550" y="430" width="190" height="90" rx="20"/><text class="txt" x="595" y="482">Approval</text>
  <rect class="box" x="780" y="430" width="250" height="90" rx="20"/><text class="txt" x="840" y="482">Trace Store</text>
  <path d="M280 120 L360 120 M580 120 L660 120 M785 170 L875 260 M785 170 L185 260 M785 170 L415 260 M785 170 L645 260" stroke="#94a3b8" stroke-width="3" fill="none"/>
  <path d="M875 350 L905 430 M185 350 L185 430 M415 350 L415 430 M645 350 L645 430" stroke="#94a3b8" stroke-width="3" fill="none"/>
</svg>
